<svg width="203" height="192" viewBox="0 0 203 192" fill="none" xmlns="http://www.w3.org/2000/svg">
<rect width="203" height="192" fill="#319A9F"/>
<path d="M203 96C203 114.987 197.047 133.548 185.894 149.335C174.741 165.122 158.889 177.426 140.342 184.692C121.796 191.958 101.387 193.86 81.6983 190.155C62.0093 186.451 43.9237 177.308 29.7287 163.882C15.5336 150.456 5.86669 133.351 1.95029 114.729C-1.96611 96.1065 0.0439328 76.8041 7.72623 59.2624C15.4085 41.7207 28.418 26.7275 45.1096 16.1789C61.8012 5.6303 81.4252 -2.26418e-07 101.5 0V6.41408C82.7665 6.41408 64.4536 11.6682 48.8772 21.512C33.3009 31.3559 21.1606 45.3473 13.9916 61.7169C6.82255 78.0866 4.9468 96.0994 8.60154 113.477C12.2563 130.855 21.2773 146.818 34.5239 159.347C47.7706 171.876 64.6478 180.408 83.0213 183.865C101.395 187.321 120.44 185.547 137.747 178.767C155.055 171.986 169.848 160.504 180.256 145.771C190.663 131.039 196.218 113.718 196.218 96H203Z" fill="white"/>
<path d="M137.793 27.7752C138.55 28.1573 139.141 28.6612 139.565 29.287C139.986 29.9197 140.208 30.6091 140.232 31.355C140.249 32.0974 140.057 32.8192 139.655 33.5205C139.254 34.2218 138.719 34.7706 138.05 35.1669C137.374 35.5596 136.642 35.7625 135.852 35.7755C135.058 35.7954 134.282 35.6144 133.525 35.2323C132.775 34.8538 132.19 34.3482 131.77 33.7155C131.346 33.0897 131.125 32.4056 131.108 31.6633C131.087 30.9279 131.279 30.206 131.685 29.4978C132.09 28.7896 132.627 28.2373 133.296 27.841C133.96 27.4516 134.69 27.247 135.484 27.227C136.273 27.214 137.043 27.3967 137.793 27.7752ZM137.263 28.7021C136.713 28.4246 136.15 28.2974 135.576 28.3205C134.994 28.3401 134.457 28.4985 133.964 28.7959C133.461 29.0966 133.058 29.5108 132.756 30.0385C132.454 30.5662 132.31 31.1067 132.325 31.66C132.329 32.2166 132.482 32.7282 132.786 33.1947C133.083 33.6576 133.506 34.0278 134.056 34.3054C134.606 34.5829 135.175 34.7137 135.764 34.6978C136.346 34.6783 136.889 34.5181 137.392 34.2174C137.885 33.92 138.282 33.5075 138.584 32.9798C138.886 32.4521 139.035 31.91 139.032 31.3533C139.017 30.8 138.858 30.2901 138.554 29.8236C138.243 29.3535 137.813 28.9797 137.263 28.7021Z" fill="white"/>
<path d="M121.806 21.5527L122.681 24.5232C122.9 24.5744 123.071 24.6189 123.193 24.6568L125.176 25.2713L126.024 22.8599L127.17 23.215L124.385 31.14L121.256 30.1703C120.217 29.8483 119.485 29.3496 119.062 28.6743C118.638 27.999 118.577 27.2312 118.88 26.3707C119.094 25.7594 119.43 25.286 119.887 24.9505C120.344 24.615 120.89 24.4367 121.524 24.4157L120.556 21.1656L121.806 21.5527ZM122.89 25.6298C122.164 25.4048 121.555 25.3879 121.064 25.5789C120.574 25.77 120.227 26.1523 120.026 26.7259C119.824 27.2995 119.861 27.7965 120.137 28.2168C120.411 28.6446 120.91 28.971 121.636 29.196L123.585 29.7998L124.838 26.2336L122.89 25.6298Z" fill="white"/>
<path d="M107.619 23.0672L106.479 22.9052L107 19.6709C107.466 19.3898 107.987 19.1972 108.563 19.0932C109.139 18.9891 109.724 18.9793 110.318 19.0637C111.158 19.183 111.885 19.4721 112.499 19.931C113.113 20.3979 113.562 20.9788 113.847 21.6736C114.123 22.3753 114.196 23.1289 114.066 23.9345C113.936 24.7402 113.629 25.4398 113.145 26.0334C112.652 26.626 112.04 27.0561 111.308 27.3237C110.569 27.5903 109.775 27.6634 108.928 27.543C108.262 27.4485 107.678 27.2524 107.175 26.9547C106.663 26.6638 106.251 26.2821 105.938 25.8095L106.793 25.1796C107.355 25.9139 108.108 26.3479 109.05 26.4818C109.684 26.5718 110.276 26.5146 110.828 26.3102C111.37 26.1125 111.823 25.7891 112.187 25.3399C112.55 24.8987 112.78 24.3739 112.878 23.7658C112.975 23.1655 112.92 22.6003 112.714 22.0701C112.506 21.5478 112.175 21.113 111.721 20.7657C111.258 20.4172 110.714 20.1986 110.089 20.1097C109.344 20.0039 108.666 20.0894 108.054 20.366L107.619 23.0672Z" fill="white"/>
<path d="M94.2416 20.4605L98.7049 20.383L99.5875 18.2674L100.823 18.246L97.1851 26.7103L95.9973 26.7309L92.0166 18.3987L93.2765 18.3769L94.2416 20.4605ZM94.6804 21.413L96.5731 25.4968L98.3039 21.3501L94.6804 21.413Z" fill="white"/>
<path d="M80.4783 28.6037L78.8185 20.3693L79.7873 20.1971L85.9873 25.4556L84.7495 19.3151L85.931 19.1051L87.5908 27.3394L86.622 27.5117L80.4221 22.2532L81.6598 28.3937L80.4783 28.6037Z" fill="white"/>
<path d="M74.7079 30.2594L73.5643 30.6231L70.714 22.7215L71.8575 22.3578L74.7079 30.2594Z" fill="white"/>
<path d="M60.1827 26.9018C60.9442 26.5472 61.7191 26.3891 62.5074 26.4274C63.2921 26.4763 64.0099 26.7061 64.6606 27.1171C65.315 27.5351 65.8327 28.1049 66.2137 28.8264C66.5947 29.548 66.7625 30.2764 66.717 31.0115C66.6752 31.7537 66.432 32.431 65.9873 33.0435C65.5465 33.663 64.9453 34.15 64.1838 34.5046C63.5891 34.7815 62.9929 34.9358 62.3951 34.9673C61.8011 35.006 61.2292 34.9153 60.6794 34.6954L61.0335 33.6976C61.9164 34.018 62.7858 33.979 63.6416 33.5805C64.2073 33.3171 64.6532 32.9552 64.9793 32.4948C65.3055 32.0345 65.4833 31.5242 65.5128 30.964C65.5387 30.4143 65.4098 29.8706 65.1259 29.333C64.842 28.7953 64.4573 28.3663 63.9719 28.0459C63.4829 27.7359 62.9446 27.5635 62.357 27.5287C61.7694 27.4938 61.1927 27.6081 60.627 27.8715C59.7785 28.2666 59.221 28.8964 58.9546 29.7608L57.8945 29.4215C58.0409 28.8774 58.312 28.3898 58.7078 27.9587C59.0964 27.531 59.588 27.1787 60.1827 26.9018Z" fill="white"/>
<path d="M48.9584 42.7854L46.9556 40.6495L43.7095 43.3336L43.0036 42.5807L46.2497 39.8967L43.9268 37.4194L44.8516 36.6547L50.5973 42.7822L46.0288 46.5598L45.3147 45.7983L48.9584 42.7854Z" fill="white"/>
<path d="M32.1338 49.1708L35.3689 49.3962C35.5044 49.2184 35.6146 49.0815 35.6992 48.9855L37.0727 47.4288L35.0553 45.8593L35.8492 44.9594L42.4791 50.1174L40.3118 52.574C39.592 53.3899 38.8204 53.8721 37.9972 54.0207C37.174 54.1694 36.4024 53.9637 35.6826 53.4037C35.1712 53.0058 34.8413 52.5468 34.6931 52.0269C34.5449 51.5069 34.5846 50.9611 34.812 50.3894L31.2684 50.1516L32.1338 49.1708ZM36.5281 49.5848C36.0253 50.1548 35.771 50.6904 35.7653 51.1918C35.7596 51.6931 35.9966 52.1305 36.4765 52.5038C36.9564 52.8771 37.4549 53.0121 37.9721 52.9086C38.4956 52.8101 39.0088 52.4758 39.5116 51.9059L40.8612 50.3762L37.8777 48.0551L36.5281 49.5848Z" fill="white"/>
<path d="M25.8615 58.1142C26.4478 57.1599 27.1856 56.5694 28.075 56.3425C28.9643 56.1157 29.9366 56.2881 30.9917 56.8597L35.1911 59.1346L34.5629 60.1571L30.4058 57.905C28.8231 57.0476 27.6193 57.2903 26.7943 58.6332C26.3923 59.2876 26.278 59.8934 26.4513 60.4506C26.6316 61.0116 27.1227 61.5094 27.9246 61.9438L32.0818 64.1959L31.4725 65.1877L27.2731 62.9127C26.211 62.3373 25.5618 61.6313 25.3257 60.7948C25.0967 59.9621 25.2753 59.0686 25.8615 58.1142Z" fill="white"/>
<path d="M29.1323 70.2614L28.6583 71.3638L20.8039 68.386L21.2778 67.2835L29.1323 70.2614Z" fill="white"/>
<path d="M25.0956 78.4034L25.8683 75.629L26.8821 75.878L25.018 82.5713L24.0041 82.3223L24.7768 79.5479L17.6331 77.7933L17.9519 76.6489L25.0956 78.4034Z" fill="white"/>
<path d="M17.2466 100.058L17.2189 95.5939L15.1132 94.6814L15.1056 93.4454L23.529 97.2035L23.5364 98.3915L15.1601 102.253L15.1523 100.993L17.2466 100.058ZM18.2039 99.6326L22.3087 97.7982L18.1815 96.0087L18.2039 99.6326Z" fill="white"/>
<path d="M25.4031 113.126L17.1158 114.497L16.9343 113.53L22.1848 107.554L16.0048 108.576L15.7835 107.397L24.0708 106.026L24.2523 106.993L19.0018 112.969L25.1818 111.946L25.4031 113.126Z" fill="white"/>
<path d="M26.8462 117.956L28.1248 121.257C28.4455 122.085 28.5635 122.877 28.4789 123.632C28.3943 124.387 28.1171 125.044 27.6472 125.601C27.1878 126.164 26.5682 126.578 25.7885 126.844C25.0087 127.111 24.2466 127.168 23.5023 127.017C22.7684 126.871 22.1107 126.534 21.5291 126.006C20.9475 125.478 20.4964 124.8 20.1756 123.972L18.8971 120.671L26.8462 117.956ZM21.1376 123.567C21.3832 124.202 21.7234 124.715 22.1581 125.107C22.5958 125.506 23.0885 125.76 23.6363 125.869C24.1916 125.975 24.7646 125.927 25.3551 125.725C25.9456 125.524 26.4136 125.216 26.7591 124.802C27.1122 124.386 27.3198 123.893 27.3818 123.323C27.4467 122.76 27.3564 122.161 27.1108 121.527L26.2917 119.412L20.3185 121.453L21.1376 123.567Z" fill="white"/>
<path d="M40.1703 141.412L30.9669 143.176L30.2459 142.232L34.9704 134.602L35.7569 135.632L31.8688 141.89L39.442 140.458L40.1703 141.412Z" fill="white"/>
<path d="M42.2767 153.821L41.5152 154.535L37.0736 150.36L43.1999 144.613L47.5191 148.673L46.7577 149.387L43.3128 146.149L41.4312 147.914L44.5001 150.799L43.7562 151.497L40.6873 148.612L38.7093 150.467L42.2767 153.821Z" fill="white"/>
<path d="M54.413 158.9L55.3715 159.539L53.396 162.153C52.8425 162.196 52.2805 162.139 51.7103 161.979C51.14 161.82 50.6053 161.574 50.106 161.241C49.4004 160.77 48.8756 160.2 48.5317 159.529C48.1927 158.852 48.0554 158.146 48.12 157.412C48.1961 156.676 48.4801 155.982 48.9722 155.331C49.4642 154.68 50.0678 154.2 50.7829 153.889C51.5047 153.583 52.2594 153.472 53.0471 153.556C53.8415 153.644 54.5948 153.925 55.3071 154.4C55.8663 154.773 56.3046 155.199 56.6222 155.68C56.9512 156.158 57.1477 156.673 57.2115 157.224L56.1438 157.405C55.9754 156.516 55.4952 155.807 54.703 155.279C54.1705 154.924 53.6068 154.716 53.0119 154.655C52.4285 154.593 51.8675 154.679 51.3287 154.915C50.7948 155.145 50.3421 155.505 49.9707 155.997C49.604 156.482 49.391 157.002 49.3315 157.557C49.2769 158.106 49.3749 158.632 49.6254 159.135C49.8826 159.643 50.2741 160.072 50.8 160.422C51.4257 160.839 52.0801 161.06 52.7631 161.083L54.413 158.9Z" fill="white"/>
<path d="M65.22 168.106L64.7437 169.035L59.189 166.524L63.0214 159.049L68.423 161.491L67.9467 162.42L63.6385 160.472L62.4614 162.768L66.2994 164.504L65.8341 165.411L61.9961 163.676L60.7588 166.089L65.22 168.106Z" fill="white"/>
<path d="M75.509 165.035L72.7371 164.254L73.0551 163.259L79.7423 165.145L79.4243 166.139L76.6524 165.358L74.4118 172.364L73.2684 172.042L75.509 165.035Z" fill="white"/>
<path d="M89.5406 173.145L85.1124 172.582L83.8957 174.543L82.6696 174.387L87.6434 166.554L88.8219 166.704L91.4071 175.5L90.1572 175.341L89.5406 173.145ZM89.2612 172.142L88.0518 167.84L85.6662 171.685L89.2612 172.142Z" fill="white"/>
<path d="M103.016 171.181C103.508 171.301 103.901 171.537 104.194 171.888C104.486 172.231 104.643 172.674 104.662 173.217C104.688 173.945 104.433 174.513 103.895 174.923C103.365 175.332 102.577 175.553 101.529 175.586L97.5235 175.714L97.2207 167.319L100.987 167.199C101.946 167.169 102.693 167.337 103.226 167.704C103.768 168.071 104.051 168.595 104.076 169.274C104.091 169.714 104.001 170.097 103.805 170.423C103.616 170.749 103.353 171.002 103.016 171.181ZM98.4552 168.252L98.5521 170.939L101.011 170.86C101.627 170.841 102.094 170.714 102.414 170.48C102.741 170.237 102.897 169.896 102.881 169.456C102.866 169.016 102.686 168.69 102.342 168.477C102.006 168.255 101.53 168.155 100.914 168.174L98.4552 168.252ZM101.446 174.616C102.126 174.595 102.634 174.467 102.97 174.232C103.305 173.997 103.465 173.64 103.447 173.16C103.414 172.225 102.713 171.779 101.346 171.822L98.5871 171.91L98.6879 174.704L101.446 174.616Z" fill="white"/>
<path d="M110.296 166.345L111.476 166.125L113.002 173.321L117.473 172.484L117.689 173.505L112.039 174.562L110.296 166.345Z" fill="white"/>
<path d="M129.703 168.688L130.085 169.66L124.325 171.656L121.252 163.839L126.853 161.897L127.235 162.869L122.768 164.417L123.712 166.818L127.691 165.439L128.065 166.388L124.085 167.768L125.077 170.292L129.703 168.688Z" fill="white"/>
<path d="M139.021 165.535C138.462 165.829 137.871 166.031 137.249 166.142C136.63 166.242 136.091 166.236 135.634 166.125L135.548 165.114C135.978 165.213 136.46 165.225 136.993 165.153C137.53 165.069 138.031 164.904 138.499 164.659C139.115 164.335 139.516 163.993 139.701 163.634C139.883 163.267 139.873 162.916 139.672 162.579C139.525 162.332 139.321 162.177 139.061 162.115C138.804 162.043 138.527 162.031 138.23 162.079C137.94 162.123 137.541 162.211 137.033 162.342C136.396 162.506 135.865 162.614 135.44 162.666C135.023 162.714 134.61 162.669 134.202 162.532C133.798 162.384 133.458 162.079 133.184 161.619C132.954 161.234 132.85 160.833 132.871 160.416C132.899 159.995 133.07 159.58 133.384 159.171C133.698 158.762 134.17 158.392 134.8 158.061C135.239 157.83 135.704 157.658 136.194 157.544C136.685 157.431 137.144 157.397 137.571 157.443L137.712 158.452C137.286 158.423 136.867 158.454 136.456 158.544C136.04 158.627 135.663 158.758 135.323 158.937C134.721 159.253 134.331 159.598 134.154 159.971C133.984 160.341 133.999 160.694 134.2 161.03C134.347 161.278 134.553 161.436 134.817 161.504C135.077 161.566 135.358 161.576 135.659 161.535C135.963 161.484 136.36 161.392 136.849 161.261C137.486 161.098 138.014 160.992 138.431 160.944C138.849 160.895 139.258 160.942 139.659 161.083C140.067 161.221 140.406 161.516 140.676 161.97C140.901 162.348 141.002 162.751 140.978 163.178C140.95 163.599 140.776 164.016 140.454 164.429C140.129 164.835 139.651 165.203 139.021 165.535Z" fill="white"/>
<path d="M59.7188 103.148C60.875 102.633 61.9219 102.039 62.8594 101.367C63.8125 100.695 64.6562 99.9922 65.3906 99.2578C66.1406 98.5078 66.7734 97.75 67.2891 96.9844C67.8203 96.2031 68.2422 95.4609 68.5547 94.7578C68.6953 94.4141 68.9609 94.2422 69.3516 94.2422C69.6172 94.2422 69.8281 94.3359 69.9844 94.5234C70.1562 94.6953 70.2422 94.8906 70.2422 95.1094C70.2422 95.2344 70.2188 95.3516 70.1719 95.4609C69.8281 96.2266 69.3906 97.0234 68.8594 97.8516C68.3281 98.6641 67.6797 99.4688 66.9141 100.266C66.1641 101.047 65.2812 101.805 64.2656 102.539C63.25 103.273 62.0859 103.945 60.7734 104.555C61.6172 105.43 62.3516 106.398 62.9766 107.461C63.6016 108.539 64.1172 109.656 64.5234 110.812C64.9453 111.969 65.2578 113.133 65.4609 114.305C65.6797 115.492 65.7891 116.625 65.7891 117.703C65.7891 118.688 65.6953 119.609 65.5078 120.469C65.3359 121.344 65.0703 122.102 64.7109 122.742C64.3672 123.383 63.9453 123.883 63.4453 124.242C62.9453 124.617 62.375 124.805 61.7344 124.805C60.7969 124.805 60.0703 124.453 59.5547 123.75C59.0391 123.062 58.6562 122.102 58.4062 120.867C58.1719 119.648 58.0312 118.203 57.9844 116.531C57.9531 114.875 57.9375 113.07 57.9375 111.117C57.9375 110.148 57.9375 109.016 57.9375 107.719C57.9375 106.438 57.9375 105.055 57.9375 103.57C57.9531 102.102 57.9609 100.562 57.9609 98.9531C57.9766 97.3281 57.9922 95.7031 58.0078 94.0781C58.0234 92.4531 58.0391 90.8594 58.0547 89.2969C58.0703 87.7188 58.0938 86.2266 58.125 84.8203C58.1719 82.1328 58.2656 79.7344 58.4062 77.625C58.5469 75.5156 58.7734 73.7344 59.0859 72.2812C59.3984 70.8281 59.8203 69.7266 60.3516 68.9766C60.8984 68.2109 61.5859 67.8281 62.4141 67.8281C63.0703 67.8281 63.625 68.0156 64.0781 68.3906C64.5312 68.75 64.8984 69.2422 65.1797 69.8672C65.4609 70.4766 65.6641 71.1953 65.7891 72.0234C65.9141 72.8516 65.9766 73.7188 65.9766 74.625C65.9766 76.5312 65.8125 78.375 65.4844 80.1562C65.1562 81.9375 64.7109 83.6641 64.1484 85.3359C63.5859 87.0078 62.9219 88.6406 62.1562 90.2344C61.4062 91.8281 60.6016 93.3984 59.7422 94.9453C59.7422 95.5859 59.7422 96.2812 59.7422 97.0312C59.7422 97.7656 59.7422 98.5078 59.7422 99.2578C59.7422 99.9922 59.7344 100.703 59.7188 101.391C59.7188 102.062 59.7188 102.648 59.7188 103.148ZM59.7891 91.3359C60.4297 90.1328 61.0156 88.8672 61.5469 87.5391C62.0938 86.1953 62.5625 84.8125 62.9531 83.3906C63.3438 81.9688 63.6484 80.5156 63.8672 79.0312C64.0859 77.5469 64.1953 76.0547 64.1953 74.5547C64.1953 73.8047 64.1562 73.125 64.0781 72.5156C64.0156 71.9062 63.9062 71.3906 63.75 70.9688C63.6094 70.5312 63.4219 70.1953 63.1875 69.9609C62.9688 69.7109 62.7109 69.5859 62.4141 69.5859C62.1016 69.5859 61.8281 69.7734 61.5938 70.1484C61.3594 70.5234 61.1562 71.0234 60.9844 71.6484C60.8125 72.2734 60.6641 72.9922 60.5391 73.8047C60.4297 74.6172 60.3359 75.4688 60.2578 76.3594C60.1797 77.2344 60.1172 78.1172 60.0703 79.0078C60.0234 79.8828 59.9844 80.7109 59.9531 81.4922C59.9375 82.2578 59.9219 82.9375 59.9062 83.5312C59.9062 84.125 59.9062 84.5703 59.9062 84.8672C59.8906 85.4922 59.875 86.0469 59.8594 86.5312C59.8594 87.0156 59.8516 87.4922 59.8359 87.9609C59.8203 88.4297 59.8047 88.9297 59.7891 89.4609C59.7891 89.9922 59.7891 90.6172 59.7891 91.3359ZM59.7188 106.031C59.7188 107.016 59.7109 107.93 59.6953 108.773C59.6953 109.633 59.6953 110.414 59.6953 111.117C59.6953 112.57 59.7031 114.008 59.7188 115.43C59.7344 116.852 59.8047 118.125 59.9297 119.25C60.0703 120.391 60.2734 121.305 60.5391 121.992C60.8203 122.695 61.2188 123.047 61.7344 123.047C62.2031 123.047 62.5859 122.836 62.8828 122.414C63.1797 121.992 63.4062 121.492 63.5625 120.914C63.7344 120.336 63.8516 119.742 63.9141 119.133C63.9766 118.539 64.0078 118.055 64.0078 117.68C64.0078 116.727 63.9141 115.727 63.7266 114.68C63.5547 113.633 63.2812 112.594 62.9062 111.562C62.5469 110.547 62.1016 109.562 61.5703 108.609C61.0391 107.656 60.4219 106.797 59.7188 106.031ZM71.0391 92.3672C70.9766 92.7891 70.8984 93.1875 70.8047 93.5625C70.7109 93.9219 70.6172 94.2422 70.5234 94.5234C70.4453 94.7891 70.375 95.0078 70.3125 95.1797C70.25 95.3516 70.2109 95.4453 70.1953 95.4609C70.0391 95.8203 69.7656 96 69.375 96C69.1562 96 68.9531 95.9219 68.7656 95.7656C68.5781 95.5938 68.4844 95.3828 68.4844 95.1328C68.4844 95.0391 68.5 94.9688 68.5312 94.9219C68.5625 94.875 68.6094 94.7812 68.6719 94.6406C68.7344 94.5 68.8125 94.2656 68.9062 93.9375C69 93.6094 69.1172 93.1016 69.2578 92.4141C68.9922 92.4141 68.7188 92.4062 68.4375 92.3906C68.1562 92.375 67.8984 92.3203 67.6641 92.2266C67.4141 92.1328 67.2109 91.9844 67.0547 91.7812C66.8984 91.5781 66.8203 91.2969 66.8203 90.9375C66.8203 90.6719 66.8984 90.3125 67.0547 89.8594C67.1953 89.4062 67.3906 88.9609 67.6406 88.5234C67.8906 88.0859 68.1719 87.7109 68.4844 87.3984C68.7969 87.0703 69.1094 86.9062 69.4219 86.9062C69.7812 86.9062 70.0703 87.0391 70.2891 87.3047C70.5234 87.5703 70.7031 87.8984 70.8281 88.2891C70.9531 88.6641 71.0391 89.0625 71.0859 89.4844C71.1484 89.9062 71.1797 90.2734 71.1797 90.5859C71.4453 90.5859 71.7031 90.5859 71.9531 90.5859C72.2188 90.5703 72.4688 90.5625 72.7031 90.5625C73.5938 90.5625 74.2734 90.7578 74.7422 91.1484C75.2109 91.5391 75.4453 92.1797 75.4453 93.0703C75.4453 93.4297 75.4219 93.8047 75.375 94.1953C75.3281 94.5859 75.2734 94.9922 75.2109 95.4141C75.1484 95.8203 75.0938 96.2266 75.0469 96.6328C75 97.0391 74.9766 97.4375 74.9766 97.8281C74.9766 98.3906 75.0547 98.8594 75.2109 99.2344C75.3672 99.5938 75.5625 99.8828 75.7969 100.102C76.0312 100.32 76.2812 100.477 76.5469 100.57C76.8125 100.648 77.0547 100.688 77.2734 100.688C77.9453 100.688 78.5781 100.469 79.1719 100.031C79.7656 99.5938 80.3125 99.0703 80.8125 98.4609C81.3125 97.8359 81.7578 97.1797 82.1484 96.4922C82.5547 95.8047 82.8906 95.2031 83.1562 94.6875C83.2344 94.5469 83.3438 94.4375 83.4844 94.3594C83.625 94.2812 83.7734 94.2422 83.9297 94.2422C84.2109 94.2422 84.4297 94.3359 84.5859 94.5234C84.7422 94.6953 84.8203 94.8906 84.8203 95.1094C84.8203 95.2656 84.7891 95.4062 84.7266 95.5312C84.3672 96.1719 83.9453 96.8984 83.4609 97.7109C82.9922 98.5078 82.4531 99.2578 81.8438 99.9609C81.2344 100.664 80.5469 101.258 79.7812 101.742C79.0312 102.227 78.2031 102.469 77.2969 102.469C76.7344 102.469 76.2031 102.359 75.7031 102.141C75.2031 101.938 74.7656 101.641 74.3906 101.25C74.0312 100.844 73.7422 100.352 73.5234 99.7734C73.3047 99.1797 73.1953 98.5156 73.1953 97.7812C73.1953 97 73.2734 96.2266 73.4297 95.4609C73.5859 94.6797 73.6641 93.9375 73.6641 93.2344C73.6641 92.9375 73.5938 92.7188 73.4531 92.5781C73.3281 92.4219 73.0391 92.3438 72.5859 92.3438C72.3672 92.3438 72.125 92.3438 71.8594 92.3438C71.6094 92.3438 71.3359 92.3516 71.0391 92.3672ZM69.4688 90.6328C69.4688 90.5234 69.4609 90.3828 69.4453 90.2109C69.4453 90.0234 69.4297 89.8438 69.3984 89.6719C69.3828 89.5 69.3516 89.3516 69.3047 89.2266C69.2734 89.1016 69.2344 89.0391 69.1875 89.0391C69.1406 89.0391 69.0781 89.1016 69 89.2266C68.9375 89.3359 68.8672 89.4766 68.7891 89.6484C68.7109 89.8047 68.6406 89.9766 68.5781 90.1641C68.5156 90.3516 68.4688 90.5078 68.4375 90.6328H69.4688ZM85.9688 99.4219C86.2969 99.875 86.7188 100.242 87.2344 100.523C87.75 100.789 88.3828 100.922 89.1328 100.922C89.8984 100.922 90.5938 100.742 91.2188 100.383C91.8438 100.008 92.4141 99.5234 92.9297 98.9297C93.4453 98.3359 93.9062 97.6719 94.3125 96.9375C94.7188 96.2031 95.0859 95.4688 95.4141 94.7344C95.4922 94.5625 95.6016 94.4375 95.7422 94.3594C95.8828 94.2656 96.0391 94.2188 96.2109 94.2188C96.4766 94.2188 96.6875 94.3125 96.8438 94.5C97.0156 94.6875 97.1016 94.8906 97.1016 95.1094C97.1016 95.1875 97.0938 95.2578 97.0781 95.3203C97.0625 95.3672 97.0391 95.4219 97.0078 95.4844C95.9297 97.8594 94.75 99.6484 93.4688 100.852C92.2031 102.055 90.7656 102.672 89.1562 102.703C88.125 102.703 87.2344 102.5 86.4844 102.094C85.7344 101.703 85.1172 101.195 84.6328 100.57C84.1484 99.9297 83.7891 99.2109 83.5547 98.4141C83.3203 97.6172 83.2031 96.8203 83.2031 96.0234C83.2031 95.2266 83.2969 94.4922 83.4844 93.8203C83.6875 93.1484 83.9688 92.5625 84.3281 92.0625C84.7031 91.5625 85.1406 91.1719 85.6406 90.8906C86.1562 90.6094 86.7188 90.4688 87.3281 90.4688C87.6875 90.4688 88.0391 90.5469 88.3828 90.7031C88.7422 90.8438 89.0625 91.0547 89.3438 91.3359C89.625 91.6016 89.8516 91.9297 90.0234 92.3203C90.1953 92.7109 90.2812 93.1562 90.2812 93.6562C90.2812 94.2969 90.1719 94.8984 89.9531 95.4609C89.7344 96.0234 89.4297 96.5469 89.0391 97.0312C88.6641 97.5156 88.2109 97.9609 87.6797 98.3672C87.1484 98.7734 86.5781 99.125 85.9688 99.4219ZM85.2656 97.8984C85.75 97.6953 86.1875 97.4375 86.5781 97.125C86.9844 96.8125 87.3281 96.4688 87.6094 96.0938C87.8906 95.7188 88.1094 95.3281 88.2656 94.9219C88.4219 94.5 88.5 94.0781 88.5 93.6562C88.5 93.1875 88.3828 92.8359 88.1484 92.6016C87.9141 92.3516 87.6406 92.2266 87.3281 92.2266C86.9062 92.2266 86.5469 92.3438 86.25 92.5781C85.9531 92.8125 85.7109 93.1172 85.5234 93.4922C85.3359 93.8672 85.1953 94.2891 85.1016 94.7578C85.0234 95.2109 84.9844 95.6641 84.9844 96.1172C84.9844 96.3984 85.0078 96.6953 85.0547 97.0078C85.1172 97.3203 85.1875 97.6172 85.2656 97.8984ZM98.0391 93.3281C97.9453 93.5781 97.8281 93.8594 97.6875 94.1719C97.5625 94.4844 97.4141 94.8125 97.2422 95.1562C97.1016 95.4219 96.9531 95.6328 96.7969 95.7891C96.6562 95.9297 96.4688 96 96.2344 96C95.9688 96 95.7578 95.9219 95.6016 95.7656C95.4453 95.5938 95.3672 95.3984 95.3672 95.1797C95.3672 95.1016 95.375 95.0391 95.3906 94.9922C95.4062 94.9297 95.4453 94.8359 95.5078 94.7109C95.9141 93.9297 96.2109 93.25 96.3984 92.6719C96.6016 92.0781 96.7656 91.4609 96.8906 90.8203C96.7812 90.4609 96.7031 90.1562 96.6562 89.9062C96.6094 89.6562 96.5859 89.3984 96.5859 89.1328C96.5859 88.6172 96.6953 88.2031 96.9141 87.8906C97.1328 87.5625 97.4375 87.3984 97.8281 87.3984C98.1875 87.3984 98.4688 87.5547 98.6719 87.8672C98.8906 88.1797 99 88.5625 99 89.0156C99 89.2656 98.9766 89.5156 98.9297 89.7656C98.8828 90.0156 98.8203 90.3281 98.7422 90.7031C99.1016 91.5938 99.4609 92.3828 99.8203 93.0703C100.18 93.7578 100.5 94.3906 100.781 94.9688C101.062 95.5312 101.289 96.0625 101.461 96.5625C101.648 97.0625 101.742 97.5625 101.742 98.0625C101.742 98.7188 101.609 99.3438 101.344 99.9375C101.078 100.531 100.641 101.031 100.031 101.438C100.109 101.453 100.188 101.461 100.266 101.461C100.344 101.461 100.422 101.461 100.5 101.461C101.391 101.461 102.211 101.258 102.961 100.852C103.711 100.445 104.383 99.9219 104.977 99.2812C105.586 98.625 106.125 97.9062 106.594 97.125C107.062 96.3281 107.469 95.5391 107.812 94.7578C107.969 94.3984 108.188 94.2188 108.469 94.2188C108.734 94.2188 108.938 94.3125 109.078 94.5C109.234 94.6875 109.312 94.8906 109.312 95.1094C109.312 95.2344 109.289 95.3516 109.242 95.4609C109.07 95.8828 108.844 96.3672 108.562 96.9141C108.297 97.4453 107.969 98 107.578 98.5781C107.203 99.1406 106.766 99.6953 106.266 100.242C105.766 100.789 105.203 101.281 104.578 101.719C103.969 102.141 103.297 102.477 102.562 102.727C101.828 102.992 101.023 103.125 100.148 103.125C99.1016 103.125 98.125 102.938 97.2188 102.562C96.3281 102.203 95.6016 101.602 95.0391 100.758C94.9453 100.617 94.8984 100.469 94.8984 100.312C94.8984 100.078 94.9844 99.875 95.1562 99.7031C95.3438 99.5156 95.5547 99.4219 95.7891 99.4219C96.0391 99.4219 96.25 99.5078 96.4219 99.6797C96.4375 99.7109 96.4922 99.7656 96.5859 99.8438C96.6797 99.9062 96.7891 99.9844 96.9141 100.078C97.0547 100.156 97.2109 100.227 97.3828 100.289C97.5703 100.352 97.7578 100.383 97.9453 100.383C98.3203 100.383 98.6328 100.305 98.8828 100.148C99.1484 99.9922 99.3594 99.8047 99.5156 99.5859C99.6719 99.3516 99.7812 99.1094 99.8438 98.8594C99.9219 98.5938 99.9609 98.3672 99.9609 98.1797C99.9609 97.7891 99.8984 97.3984 99.7734 97.0078C99.6484 96.6172 99.4844 96.2266 99.2812 95.8359C99.0938 95.4453 98.8828 95.0469 98.6484 94.6406C98.4297 94.2188 98.2266 93.7812 98.0391 93.3281ZM109.477 100.008C109.727 99.4766 110.016 98.9062 110.344 98.2969C110.672 97.6719 111.023 97.0391 111.398 96.3984C111.773 95.7422 112.172 95.0938 112.594 94.4531C113.016 93.8125 113.453 93.2109 113.906 92.6484C114.359 92.1016 114.812 91.7109 115.266 91.4766C115.734 91.2266 116.172 91.1016 116.578 91.1016C116.984 91.1016 117.336 91.1875 117.633 91.3594C117.945 91.5156 118.195 91.7344 118.383 92.0156C118.586 92.2969 118.734 92.625 118.828 93C118.938 93.375 118.992 93.7812 118.992 94.2188C118.992 94.5781 118.953 95.0625 118.875 95.6719C118.812 96.2656 118.781 96.8906 118.781 97.5469C118.781 97.9219 118.797 98.2969 118.828 98.6719C118.875 99.0312 118.945 99.3594 119.039 99.6562C119.148 99.9375 119.305 100.172 119.508 100.359C119.711 100.531 119.977 100.617 120.305 100.617C120.68 100.617 121.055 100.516 121.43 100.312C121.805 100.094 122.172 99.8125 122.531 99.4688C122.891 99.1094 123.234 98.7188 123.562 98.2969C123.891 97.8594 124.188 97.4297 124.453 97.0078C124.719 96.5703 124.953 96.1562 125.156 95.7656C125.359 95.3594 125.523 95.0234 125.648 94.7578C125.805 94.3984 126.078 94.2188 126.469 94.2188C126.734 94.2188 126.945 94.3125 127.102 94.5C127.258 94.6875 127.336 94.8906 127.336 95.1094C127.336 95.2344 127.312 95.3516 127.266 95.4609C127.203 95.5859 127.078 95.8438 126.891 96.2344C126.719 96.625 126.477 97.0781 126.164 97.5938C125.867 98.1094 125.516 98.6484 125.109 99.2109C124.703 99.7734 124.25 100.297 123.75 100.781C123.266 101.25 122.734 101.641 122.156 101.953C121.594 102.25 121 102.398 120.375 102.398C119.656 102.398 119.078 102.25 118.641 101.953C118.203 101.641 117.859 101.25 117.609 100.781C117.375 100.312 117.211 99.7891 117.117 99.2109C117.039 98.6328 117 98.0703 117 97.5234C117 97.2422 117.008 96.9453 117.023 96.6328C117.055 96.3047 117.086 95.9844 117.117 95.6719C117.148 95.3594 117.172 95.0703 117.188 94.8047C117.219 94.5234 117.234 94.2891 117.234 94.1016C117.234 93.6172 117.164 93.2891 117.023 93.1172C116.898 92.9453 116.75 92.8594 116.578 92.8594C116.328 92.8594 116.039 93.0078 115.711 93.3047C115.398 93.5859 115.062 93.9609 114.703 94.4297C114.359 94.8984 114.008 95.4297 113.648 96.0234C113.305 96.6016 112.969 97.1797 112.641 97.7578C112.312 98.3359 112.016 98.8906 111.75 99.4219C111.484 99.9375 111.266 100.367 111.094 100.711C110.766 101.367 110.43 101.805 110.086 102.023C109.758 102.258 109.461 102.375 109.195 102.375C108.711 102.375 108.336 102.188 108.07 101.812C107.82 101.422 107.695 100.953 107.695 100.406V98.9297C107.695 95.9766 107.695 93.1641 107.695 90.4922C107.711 87.8047 107.75 85.3125 107.812 83.0156C107.891 80.7031 108.008 78.6172 108.164 76.7578C108.336 74.8828 108.586 73.2891 108.914 71.9766C109.242 70.6484 109.656 69.625 110.156 68.9062C110.672 68.1875 111.312 67.8281 112.078 67.8281C112.734 67.8281 113.289 68.0078 113.742 68.3672C114.195 68.7266 114.562 69.2188 114.844 69.8438C115.125 70.4531 115.328 71.1719 115.453 72C115.578 72.8125 115.641 73.6719 115.641 74.5781C115.641 76.4219 115.469 78.2344 115.125 80.0156C114.797 81.7812 114.352 83.5078 113.789 85.1953C113.227 86.8828 112.57 88.5312 111.82 90.1406C111.07 91.7344 110.281 93.2891 109.453 94.8047C109.453 95.0859 109.453 95.4219 109.453 95.8125C109.453 96.2031 109.453 96.5938 109.453 96.9844C109.453 97.375 109.453 97.7422 109.453 98.0859C109.453 98.4297 109.453 98.7031 109.453 98.9062L109.477 100.008ZM109.477 91.3594C110.133 89.9219 110.727 88.5234 111.258 87.1641C111.805 85.7891 112.266 84.4219 112.641 83.0625C113.031 81.7031 113.336 80.3281 113.555 78.9375C113.773 77.5312 113.883 76.0703 113.883 74.5547C113.883 74.3047 113.867 73.9062 113.836 73.3594C113.82 72.8125 113.75 72.2578 113.625 71.6953C113.516 71.1328 113.336 70.6406 113.086 70.2188C112.852 69.7969 112.516 69.5859 112.078 69.5859C111.734 69.5859 111.438 69.8203 111.188 70.2891C110.938 70.7422 110.719 71.3672 110.531 72.1641C110.344 72.9453 110.188 73.8594 110.062 74.9062C109.938 75.9531 109.836 77.0625 109.758 78.2344C109.68 79.4062 109.617 80.6094 109.57 81.8438C109.539 83.0781 109.516 84.2812 109.5 85.4531C109.484 86.6094 109.477 87.6953 109.477 88.7109C109.477 89.7266 109.477 90.6094 109.477 91.3594ZM143.789 95.4609C143.727 95.5859 143.594 95.8516 143.391 96.2578C143.203 96.6484 142.953 97.1016 142.641 97.6172C142.344 98.1328 141.992 98.6719 141.586 99.2344C141.18 99.7969 140.727 100.312 140.227 100.781C139.727 101.25 139.188 101.641 138.609 101.953C138.031 102.25 137.422 102.398 136.781 102.398C135.875 102.398 135.109 102.109 134.484 101.531C133.875 100.953 133.43 100.227 133.148 99.3516C132.617 100.242 131.984 100.953 131.25 101.484C130.516 102 129.781 102.258 129.047 102.258C128.469 102.258 127.945 102.156 127.477 101.953C127.008 101.734 126.609 101.438 126.281 101.062C125.953 100.672 125.695 100.219 125.508 99.7031C125.336 99.1875 125.25 98.625 125.25 98.0156C125.25 96.7969 125.453 95.7266 125.859 94.8047C126.281 93.8672 126.812 93.0859 127.453 92.4609C128.094 91.8359 128.797 91.3672 129.562 91.0547C130.344 90.7422 131.094 90.5859 131.812 90.5859C132.297 90.5859 132.742 90.6562 133.148 90.7969C133.555 90.9219 133.898 91.0625 134.18 91.2188C134.477 91.375 134.703 91.5234 134.859 91.6641C135.016 91.7891 135.102 91.8594 135.117 91.875C135.289 92.0781 135.375 92.2891 135.375 92.5078C135.375 92.7422 135.289 92.9531 135.117 93.1406C134.945 93.3125 134.742 93.3984 134.508 93.3984C134.258 93.3984 134.047 93.3125 133.875 93.1406C133.844 93.1094 133.773 93.0547 133.664 92.9766C133.555 92.8828 133.406 92.7891 133.219 92.6953C133.031 92.6016 132.805 92.5234 132.539 92.4609C132.289 92.3828 132 92.3438 131.672 92.3438C131.188 92.3438 130.672 92.4531 130.125 92.6719C129.578 92.8906 129.078 93.2344 128.625 93.7031C128.172 94.1562 127.789 94.7344 127.477 95.4375C127.18 96.125 127.031 96.9453 127.031 97.8984C127.031 98.1953 127.062 98.5 127.125 98.8125C127.188 99.1094 127.297 99.3828 127.453 99.6328C127.609 99.8828 127.82 100.086 128.086 100.242C128.352 100.398 128.68 100.477 129.07 100.477C129.352 100.477 129.672 100.383 130.031 100.195C130.406 100.008 130.758 99.7188 131.086 99.3281C131.43 98.9375 131.734 98.4453 132 97.8516C132.281 97.2578 132.477 96.5547 132.586 95.7422C132.617 95.5234 132.719 95.3438 132.891 95.2031C133.062 95.0469 133.266 94.9688 133.5 94.9688C133.719 94.9688 133.906 95.0547 134.062 95.2266C134.234 95.3984 134.328 95.5938 134.344 95.8125C134.359 96.1094 134.391 96.5312 134.438 97.0781C134.484 97.6094 134.586 98.1406 134.742 98.6719C134.914 99.2031 135.164 99.6641 135.492 100.055C135.82 100.445 136.273 100.641 136.852 100.641C137.227 100.641 137.594 100.539 137.953 100.336C138.328 100.133 138.688 99.8672 139.031 99.5391C139.391 99.1953 139.727 98.8125 140.039 98.3906C140.367 97.9531 140.664 97.5156 140.93 97.0781C141.195 96.6406 141.43 96.2188 141.633 95.8125C141.836 95.4062 142.008 95.0547 142.148 94.7578C142.227 94.5859 142.336 94.4531 142.477 94.3594C142.633 94.2656 142.797 94.2188 142.969 94.2188C143.234 94.2188 143.445 94.3203 143.602 94.5234C143.773 94.7109 143.859 94.9141 143.859 95.1328C143.859 95.2422 143.836 95.3516 143.789 95.4609ZM148.078 99.1172C148.344 99.7109 148.781 100.188 149.391 100.547C150 100.891 150.688 101.062 151.453 101.062C151.688 101.062 152.07 101.031 152.602 100.969C153.133 100.891 153.742 100.656 154.43 100.266C155.133 99.8594 155.875 99.2266 156.656 98.3672C157.438 97.5078 158.195 96.2969 158.93 94.7344C159.008 94.5625 159.117 94.4375 159.258 94.3594C159.398 94.2656 159.555 94.2188 159.727 94.2188C159.992 94.2188 160.203 94.3125 160.359 94.5C160.531 94.6875 160.617 94.8906 160.617 95.1094C160.617 95.2031 160.586 95.3281 160.523 95.4844C159.977 96.625 159.367 97.6484 158.695 98.5547C158.023 99.4453 157.297 100.211 156.516 100.852C155.734 101.477 154.914 101.953 154.055 102.281C153.211 102.625 152.344 102.797 151.453 102.797C150.75 102.797 150.086 102.688 149.461 102.469C148.852 102.25 148.32 101.961 147.867 101.602C147.43 101.227 147.078 100.812 146.812 100.359C146.562 99.8906 146.438 99.4141 146.438 98.9297C146.438 98.8672 146.445 98.7812 146.461 98.6719C146.477 98.5625 146.516 98.4453 146.578 98.3203C146.656 98.1797 146.758 98.0547 146.883 97.9453C147.023 97.8203 147.211 97.7188 147.445 97.6406C148.086 97.4531 148.672 97.2266 149.203 96.9609C149.75 96.6797 150.219 96.3672 150.609 96.0234C151 95.6797 151.305 95.3047 151.523 94.8984C151.742 94.4766 151.852 94.0234 151.852 93.5391C151.852 93.1172 151.711 92.7734 151.43 92.5078C151.148 92.2422 150.805 92.1094 150.398 92.1094C149.977 92.1094 149.562 92.2578 149.156 92.5547C148.75 92.8359 148.352 93.2188 147.961 93.7031C147.586 94.1719 147.227 94.7188 146.883 95.3438C146.539 95.9531 146.219 96.5938 145.922 97.2656C145.641 97.9375 145.391 98.6094 145.172 99.2812C144.953 99.9375 144.773 100.547 144.633 101.109C144.586 101.281 144.531 101.469 144.469 101.672C144.422 101.875 144.344 102.062 144.234 102.234C144.125 102.422 143.992 102.57 143.836 102.68C143.68 102.805 143.477 102.867 143.227 102.867C142.992 102.867 142.766 102.766 142.547 102.562C142.328 102.375 142.219 102.047 142.219 101.578C142.219 101.484 142.219 101.125 142.219 100.5C142.234 99.875 142.25 99.0625 142.266 98.0625C142.281 97.0469 142.297 95.8906 142.312 94.5938C142.344 93.2812 142.367 91.8984 142.383 90.4453C142.398 88.9766 142.422 87.4688 142.453 85.9219C142.484 84.375 142.508 82.8672 142.523 81.3984C142.539 79.9297 142.555 78.5391 142.57 77.2266C142.602 75.8984 142.625 74.7266 142.641 73.7109C142.656 72.6797 142.664 71.8438 142.664 71.2031C142.68 70.5469 142.688 70.1562 142.688 70.0312C142.688 69.7812 142.781 69.5781 142.969 69.4219C143.156 69.25 143.359 69.1641 143.578 69.1641C143.828 69.1641 144.039 69.25 144.211 69.4219C144.383 69.5781 144.469 69.7891 144.469 70.0547C144.469 70.0859 144.461 70.3984 144.445 70.9922C144.445 71.5703 144.438 72.3516 144.422 73.3359C144.406 74.3203 144.383 75.4688 144.352 76.7812C144.336 78.0938 144.312 79.4922 144.281 80.9766C144.266 82.4453 144.242 83.9609 144.211 85.5234C144.195 87.0859 144.172 88.6094 144.141 90.0938C144.125 91.5781 144.109 92.9922 144.094 94.3359C144.078 95.6797 144.062 96.8672 144.047 97.8984C144.297 97.1016 144.617 96.2656 145.008 95.3906C145.398 94.5 145.859 93.6797 146.391 92.9297C146.922 92.1797 147.516 91.5625 148.172 91.0781C148.844 90.5938 149.586 90.3516 150.398 90.3516C150.852 90.3516 151.273 90.4375 151.664 90.6094C152.055 90.7656 152.391 90.9922 152.672 91.2891C152.969 91.5703 153.195 91.9062 153.352 92.2969C153.523 92.6875 153.609 93.1094 153.609 93.5625C153.609 94.2656 153.453 94.9141 153.141 95.5078C152.828 96.0859 152.414 96.6094 151.898 97.0781C151.383 97.5312 150.789 97.9297 150.117 98.2734C149.461 98.6172 148.781 98.8984 148.078 99.1172Z" fill="white"/>
</svg>
